<svg width="396" height="378" viewBox="0 0 396 378" fill="none" xmlns="http://www.w3.org/2000/svg">
<path d="M337.178 307.941L329.484 331.428L354.498 345.614L365.726 324.996L355.002 315.849L343.635 324.994L346.117 329.022H352.077" stroke="#00043B" stroke-linecap="round" stroke-linejoin="round"/>
<path d="M74.6335 258.812L72.4457 272.718L84.0255 269.152L74.6335 258.812Z" stroke="#66B6FF" stroke-linejoin="round"/>
<path d="M369.272 270.415C372.014 270.415 374.237 268.333 374.237 265.764C374.237 263.196 372.014 261.113 369.272 261.113C366.53 261.113 364.308 263.196 364.308 265.764C364.308 268.333 366.53 270.415 369.272 270.415Z" fill="#66B6FF"/>
<path d="M28.0219 334.316C32.2716 334.316 35.7166 331.089 35.7166 327.108C35.7166 323.127 32.2716 319.899 28.0219 319.899C23.7723 319.899 20.3272 323.127 20.3272 327.108C20.3272 331.089 23.7723 334.316 28.0219 334.316Z" fill="#66B6FF"/>
<path d="M86.4562 25.5554L83.3632 11.1967L72.8584 21.4444L86.4562 25.5554Z" fill="#66B6FF" stroke="#66B6FF" stroke-width="0.641" stroke-linejoin="round"/>
<path d="M51.2001 186.401V178.384" stroke="#00043B" stroke-linecap="round" stroke-linejoin="round"/>
<path d="M51.2001 199.335V191.318" stroke="#00043B" stroke-linecap="round" stroke-linejoin="round"/>
<path d="M53.8284 188.73H62.3861" stroke="#00043B" stroke-linecap="round" stroke-linejoin="round"/>
<path d="M40.3181 188.73H48.8758" stroke="#00043B" stroke-linecap="round" stroke-linejoin="round"/>
<path d="M280.471 295.007V286.99" stroke="#00043B" stroke-linecap="round" stroke-linejoin="round"/>
<path d="M280.471 307.941V299.924" stroke="#00043B" stroke-linecap="round" stroke-linejoin="round"/>
<path d="M283.099 297.336H291.657" stroke="#00043B" stroke-linecap="round" stroke-linejoin="round"/>
<path d="M269.589 297.336H278.147" stroke="#00043B" stroke-linecap="round" stroke-linejoin="round"/>
<path d="M309.361 224.17H352.859L362.364 176.977C362.364 176.977 338.768 177.06 330.952 176.989C323.31 176.918 300.383 177.191 300.383 177.191L309.361 224.17Z" fill="#003464" stroke="#003464" stroke-width="1.076" stroke-linejoin="round"/>
<path d="M323.296 184.445C323.296 184.427 323.298 184.408 323.302 184.39C323.503 182.198 323.918 180.029 324.542 177.909C324.986 176.244 326.156 174.498 327.581 172.56C329.374 170.104 331.573 167.343 333.214 164.029C334.569 161.368 335.372 158.49 335.582 155.548C335.83 151.788 334.52 148.52 332.727 145.415C332.727 145.412 332.727 145.409 332.726 145.406C332.725 145.404 332.724 145.401 332.722 145.399C329.327 139.543 324.239 134.265 324.586 127.353C324.943 120.304 327.479 119.178 329.705 107.5C330.011 106.15 330.218 104.782 330.322 103.405C331.715 84.0907 307.663 85.3493 300.232 98.5737C296.261 105.633 296.359 113.981 297.415 120.984C298.32 126.983 299.923 131.992 300.286 134.361C301.478 142.202 299.88 148.627 302.014 155.132C302.063 155.284 302.117 155.431 302.171 155.579C304.409 161.821 309.791 165.685 311.185 170.899C312.149 174.504 311.563 179.568 311.087 182.464L311.072 182.586" stroke="#003464" stroke-miterlimit="10" stroke-linecap="round"/>
<path d="M304.506 112.046C304.506 112.046 305.976 119.429 310.116 123.558" stroke="#003464" stroke-miterlimit="10" stroke-linecap="round"/>
<path d="M317.061 183.72C317.062 183.717 317.061 183.714 317.06 183.711C317.06 183.709 317.058 183.706 317.056 183.704C316.981 182.44 316.893 181.025 316.796 179.493C316.394 173.109 319.331 163.223 319.601 156.717C319.71 154.032 318.388 151.282 316.682 148.227C314.255 143.889 311.059 138.94 310.119 132.693C309.187 126.237 310.303 119.667 313.326 113.8" stroke="#003464" stroke-miterlimit="10" stroke-linecap="round"/>
<path d="M319.607 139.077C319.607 139.077 319.856 144.766 316.682 148.227" stroke="#003464" stroke-miterlimit="10" stroke-linecap="round"/>
<path d="M297.413 120.985C290.025 111.906 280.15 116.524 277.529 127.059C274.722 138.325 287.278 145.958 289.013 149.708C290.747 153.458 289.148 160.097 291.153 163.223C293.027 166.161 297.506 168.434 302.246 170.774L303.172 171.23C306.753 172.997 308.204 178.62 308.755 181.781L308.787 181.963" stroke="#003464" stroke-miterlimit="10" stroke-linecap="round"/>
<path d="M312.754 182.876L312.738 182.968" stroke="#003464" stroke-width="1.076" stroke-miterlimit="10" stroke-linecap="round"/>
<path d="M302.171 155.58C298.823 152.586 299.332 149.627 298.362 148.23C297.691 147.379 296.848 146.659 295.882 146.11V146.105C294.815 145.414 293.853 144.591 293.021 143.659C292.131 142.572 291.474 141.332 291.088 140.01C290.726 138.89 290.479 137.739 290.351 136.575" stroke="#003464" stroke-miterlimit="10" stroke-linecap="round"/>
<path d="M283.804 134.694C283.804 134.694 286.212 139.185 291.085 140.006" stroke="#003464" stroke-miterlimit="10" stroke-linecap="round"/>
<path d="M297.826 136.57C297.826 136.57 298.227 142.781 295.881 146.105" stroke="#003464" stroke-width="1.076" stroke-miterlimit="10" stroke-linecap="round"/>
<path d="M346.106 151.908V151.901" stroke="#00043B" stroke-width="1.076" stroke-miterlimit="10" stroke-linecap="round"/>
<path d="M327.58 172.56C328.478 173.907 329.292 175.301 330.018 176.736C331.324 179.542 331.031 182.704 330.609 184.739V184.749" stroke="#003464" stroke-width="1.076" stroke-miterlimit="10" stroke-linecap="round"/>
<path d="M337.91 184.669L337.861 184.501C337.271 182.31 337.222 179.015 338.766 174.174C339.752 171.073 340.803 168.12 341.799 165.344C342.579 163.167 343.332 161.103 343.994 159.163" stroke="#003464" stroke-width="1.076" stroke-miterlimit="10" stroke-linecap="round"/>
<path d="M343.853 125.172V125.167C343.894 122.487 344.302 119.823 345.066 117.24C347.222 110.658 344.925 103.899 338.484 102.513C335.739 101.847 332.828 102.166 330.32 103.406" stroke="#003464" stroke-miterlimit="10" stroke-linecap="round"/>
<path d="M333.214 164.029C333.203 164.267 333.192 164.511 333.176 164.75C332.986 168.363 332.937 171.854 333.268 173.234C334.016 177.013 334.416 180.845 334.464 184.688C334.47 184.715 334.47 184.743 334.464 184.77" stroke="#003464" stroke-width="1.076" stroke-miterlimit="10" stroke-linecap="round"/>
<path d="M332.726 145.415C332.031 142.187 331.141 138.998 330.062 135.865C329.303 133.794 329.509 131.063 330.04 128.506C330.622 125.886 331.464 123.322 332.553 120.849" stroke="#003464" stroke-miterlimit="10" stroke-linecap="round"/>
<path d="M330.039 128.507C335.759 126.269 338.429 117.804 338.429 117.804" stroke="#003464" stroke-width="1.076" stroke-miterlimit="10" stroke-linecap="round"/>
<path d="M341.869 184.39C341.875 184.303 341.88 184.212 341.886 184.115C341.977 182.573 342.13 180.452 342.351 178.66C342.709 175.758 345.044 170.941 345.358 165.851C345.4 165.226 345.407 164.599 345.379 163.974C345.164 162.316 344.697 160.696 343.993 159.163C341.061 151.9 334.752 140.452 337.627 131.439C338.077 130.015 338.874 128.708 339.954 127.62C341.034 126.533 342.368 125.695 343.852 125.172V125.167C346.099 124.359 348.56 124.232 350.889 124.801C355.566 125.939 359.897 129.897 360.958 137.352C361.013 137.722 361.056 138.087 361.093 138.448V138.458C362.469 151.018 356.457 160.908 353.813 167.246V167.252C353.732 167.45 353.657 167.643 353.581 167.831C353.205 168.729 352.918 169.658 352.725 170.606C351.97 174.823 350.693 179.102 350.742 182.486C350.742 182.604 350.742 182.72 350.748 182.84" stroke="#003464" stroke-miterlimit="10" stroke-linecap="round"/>
<path d="M345.949 183.867C345.943 183.755 345.943 183.643 345.943 183.526C345.933 180.584 346.162 177.646 346.626 174.737C347.579 169.058 350.298 164.648 351.43 156.813C351.463 156.589 351.49 156.361 351.522 156.128C351.854 153.119 351.589 150.079 350.742 147.161C350.069 144.672 349.074 142.269 347.779 140.006" stroke="#003464" stroke-width="1.076" stroke-miterlimit="10" stroke-linecap="round"/>
<path d="M350.744 147.161C353.501 144.497 354.108 136.57 354.108 136.57" stroke="#003464" stroke-miterlimit="10" stroke-linecap="round"/>
<path d="M351.43 156.813C350.584 156.421 349.808 155.91 349.129 155.296V155.291C347.993 154.268 346.979 153.133 346.106 151.905V151.9C345.244 150.724 344.466 149.497 343.776 148.225" stroke="#003464" stroke-miterlimit="10" stroke-linecap="round"/>
<path d="M346.777 183.37C346.767 183.492 346.755 183.614 346.746 183.731" stroke="#003464" stroke-width="1.076" stroke-miterlimit="10" stroke-linecap="round"/>
<path d="M350.889 124.801C350.879 124.76 350.868 124.72 350.857 124.685C350.321 122.68 347.25 109.914 354.194 103.035C361.138 96.1567 377.429 98.2804 379.572 110.668C381.597 122.406 372.893 127.435 371.289 137.351C370.623 141.462 371.69 145.796 370.086 150.444C368.711 154.428 361.04 162.583 358.055 169.749C357.568 170.871 357.213 172.04 356.999 173.235C356.452 176.508 355.937 179.056 355.53 180.919C355.515 181 355.493 181.071 355.481 181.147V181.153" stroke="#003464" stroke-miterlimit="10" stroke-linecap="round"/>
<path d="M361.094 138.458V138.448C362.167 136.606 363.088 135.012 363.239 133.946C363.347 132.45 363.272 130.946 363.017 129.465C362.73 127.263 362.307 124.857 362.216 122.963C362.209 122.911 362.206 122.858 362.205 122.805C362.075 119.426 365.011 115.301 365.147 114.925" stroke="#003464" stroke-miterlimit="10" stroke-linecap="round"/>
<path d="M357.932 109.045C357.932 109.045 357.866 119.696 362.216 122.967" stroke="#003464" stroke-miterlimit="10" stroke-linecap="round"/>
<path d="M363.018 129.466C369.459 126.705 372.356 116.14 372.356 116.14" stroke="#003464" stroke-miterlimit="10" stroke-linecap="round"/>
<path d="M384.112 1.00002H227.037V219.478H384.112V1.00002Z" stroke="#00043B" stroke-miterlimit="10"/>
<path d="M227.037 122.164C231.375 121.549 238.521 118.459 249.875 108.736C266.039 94.9022 283.167 80.7026 300.864 73.4698C308.616 70.2895 316.47 68.452 324.406 68.5729C334.985 68.7255 341.572 71.8309 346.887 75.6013C354.666 81.1231 359.711 88.0801 370.51 89.3438C375.028 89.8995 379.606 89.8586 384.112 89.2222" stroke="#00043B" stroke-miterlimit="10"/>
<path d="M227.037 52.7202C233.63 47.9957 245.114 41.7079 258.824 42.4189C263.249 42.5653 267.553 43.8125 271.294 46.0324C280.296 51.4629 284.062 61.6321 291.683 67.4429C294.575 69.6677 297.644 71.6814 300.865 73.4664" stroke="#00043B" stroke-miterlimit="10"/>
<path d="M384.111 48.6452C382.074 48.8012 380.051 49.0962 378.06 49.5279C377.381 49.6756 376.733 49.8431 376.11 50.0226H376.105C361.203 54.4376 362.01 68.3779 346.886 75.5943" stroke="#00043B" stroke-miterlimit="10"/>
<path d="M271.293 46.0324C274.225 44.0233 277.347 42.2703 280.621 40.7955C289.447 36.7558 302.717 32.8433 321.606 32.1578C350.374 31.1125 368.04 42.8295 376.105 50.0261H376.11" stroke="#00043B" stroke-miterlimit="10"/>
<path d="M260.073 20.1447L280.623 40.7934" stroke="#00043B" stroke-miterlimit="10" stroke-linecap="round"/>
<path d="M289.814 15.9743L298.54 32.092" stroke="#00043B" stroke-miterlimit="10" stroke-linecap="round"/>
<path d="M317.417 14.3057L319.02 26.3181" stroke="#00043B" stroke-miterlimit="10" stroke-linecap="round"/>
<path d="M344.131 15.9743L338.61 28.3202" stroke="#00043B" stroke-miterlimit="10" stroke-linecap="round"/>
<path d="M378.681 17.809L359.803 35.6611" stroke="#00043B" stroke-miterlimit="10" stroke-linecap="round"/>
<path d="M396 219.478H215.149V233.117H396V219.478Z" fill="#003464"/>
<path d="M204.744 203.694C204.557 203.647 204.367 203.599 204.188 203.548C204.059 203.511 203.95 203.427 203.886 203.316C203.822 203.204 203.808 203.073 203.846 202.951C203.863 202.891 203.893 202.835 203.934 202.786C203.975 202.737 204.026 202.696 204.084 202.665C204.142 202.635 204.206 202.616 204.272 202.608C204.338 202.601 204.405 202.607 204.469 202.624C204.525 202.64 204.584 202.653 204.641 202.669C203.288 189.246 201.434 179.614 198.878 176.924C179.144 179.062 144.642 178.507 144.642 178.507C144.642 178.507 141.447 190.198 137.646 205.353C138.229 205.044 138.804 204.726 139.354 204.396C139.41 204.362 139.473 204.34 139.538 204.329C139.604 204.319 139.671 204.321 139.736 204.335C139.8 204.349 139.861 204.376 139.915 204.412C139.969 204.449 140.014 204.495 140.048 204.548C140.119 204.657 140.142 204.787 140.113 204.911C140.083 205.035 140.003 205.143 139.889 205.212C139.181 205.636 138.438 206.05 137.682 206.438C137.586 206.491 137.472 206.508 137.363 206.484C132.584 225.611 127.433 249.878 125.529 263.122C121.576 290.631 143.006 355.378 143.006 355.378C143.006 355.378 159.154 354.876 167.415 350.866C160.464 324.113 152.336 268.465 153.826 266.328C155.315 264.19 167.23 235.696 170.581 218.953C172.443 237.831 188.762 352.642 188.762 352.642C188.762 352.642 199.474 355.298 209.364 351.973C208.509 341.07 209.185 249.22 204.744 203.694ZM145.942 201.008C145.087 201.809 144.173 202.553 143.208 203.235C143.155 203.272 143.095 203.299 143.031 203.314C142.966 203.329 142.899 203.332 142.834 203.323C142.768 203.313 142.706 203.292 142.649 203.259C142.593 203.226 142.544 203.183 142.505 203.133C142.426 203.03 142.392 202.902 142.412 202.776C142.432 202.65 142.503 202.536 142.611 202.459C143.538 201.804 144.416 201.09 145.237 200.321C145.284 200.277 145.339 200.241 145.401 200.218C145.462 200.194 145.528 200.182 145.594 200.183C145.66 200.183 145.726 200.196 145.787 200.221C145.848 200.246 145.903 200.282 145.948 200.327C146.043 200.419 146.096 200.543 146.094 200.671C146.093 200.799 146.038 200.921 145.942 201.012V201.008ZM150.556 195.15C149.983 196.154 149.34 197.123 148.629 198.047C148.591 198.098 148.542 198.141 148.486 198.174C148.429 198.206 148.366 198.228 148.3 198.238C148.235 198.247 148.168 198.244 148.103 198.229C148.039 198.214 147.979 198.186 147.926 198.149C147.818 198.072 147.746 197.958 147.726 197.832C147.707 197.707 147.74 197.579 147.819 197.475C148.502 196.586 149.122 195.656 149.673 194.69C149.704 194.634 149.746 194.586 149.797 194.546C149.848 194.506 149.907 194.477 149.971 194.459C150.035 194.441 150.101 194.435 150.167 194.442C150.233 194.449 150.297 194.468 150.355 194.498C150.474 194.561 150.561 194.665 150.599 194.787C150.636 194.91 150.621 195.041 150.556 195.153V195.15ZM153.315 188.312C153.028 189.421 152.676 190.513 152.259 191.585C152.237 191.644 152.202 191.698 152.157 191.744C152.113 191.79 152.058 191.827 151.998 191.854C151.938 191.88 151.872 191.895 151.806 191.897C151.739 191.899 151.673 191.889 151.611 191.868C151.485 191.821 151.383 191.73 151.328 191.614C151.273 191.498 151.269 191.366 151.316 191.247C151.72 190.21 152.063 189.152 152.341 188.079C152.356 188.019 152.383 187.961 152.422 187.91C152.461 187.859 152.51 187.816 152.567 187.783C152.624 187.75 152.687 187.728 152.753 187.719C152.818 187.709 152.886 187.711 152.951 187.726C153.082 187.759 153.194 187.84 153.262 187.95C153.331 188.06 153.349 188.191 153.315 188.315V188.312ZM154.051 184.462C154.038 184.578 153.979 184.685 153.887 184.763C153.795 184.841 153.676 184.885 153.552 184.886C153.532 184.887 153.512 184.887 153.492 184.886C153.358 184.87 153.237 184.804 153.154 184.704C153.071 184.604 153.034 184.477 153.051 184.351C153.175 183.387 153.24 182.417 153.246 181.446C153.246 181.202 153.24 181.067 153.24 181.062C153.233 180.935 153.279 180.812 153.369 180.717C153.459 180.623 153.585 180.566 153.72 180.559C153.787 180.556 153.854 180.566 153.917 180.587C153.98 180.609 154.038 180.642 154.087 180.684C154.136 180.727 154.175 180.778 154.203 180.835C154.231 180.893 154.246 180.954 154.248 181.017C154.248 181.017 154.256 181.168 154.256 181.446C154.248 182.455 154.18 183.463 154.051 184.465V184.462ZM188.807 184.946C188.776 184.365 188.78 183.782 188.82 183.2C188.832 183.075 188.896 182.96 188.998 182.878C189.099 182.797 189.231 182.755 189.365 182.763C189.499 182.775 189.622 182.837 189.708 182.935C189.794 183.032 189.835 183.158 189.823 183.284C189.787 183.823 189.784 184.365 189.813 184.905C189.82 185.031 189.773 185.155 189.683 185.249C189.593 185.343 189.466 185.4 189.331 185.407H189.31C189.179 185.405 189.054 185.357 188.961 185.272C188.867 185.187 188.812 185.071 188.807 184.949V184.946ZM190.995 192.23C190.937 192.253 190.874 192.264 190.812 192.264C190.71 192.264 190.61 192.234 190.526 192.179C190.443 192.125 190.379 192.047 190.343 191.958C189.917 190.913 189.578 189.839 189.328 188.745C189.299 188.621 189.323 188.491 189.395 188.384C189.467 188.277 189.581 188.2 189.713 188.171C189.778 188.158 189.846 188.157 189.911 188.169C189.977 188.18 190.039 188.204 190.095 188.238C190.151 188.272 190.199 188.316 190.236 188.368C190.273 188.42 190.3 188.478 190.313 188.539C190.55 189.584 190.874 190.61 191.281 191.607C191.331 191.726 191.328 191.859 191.274 191.976C191.22 192.094 191.118 192.186 190.992 192.234L190.995 192.23ZM195.053 198.048C195.005 198.091 194.949 198.125 194.887 198.148C194.825 198.171 194.759 198.181 194.693 198.18C194.627 198.178 194.561 198.164 194.501 198.138C194.441 198.113 194.386 198.076 194.341 198.03C193.531 197.212 192.803 196.325 192.167 195.381C192.095 195.274 192.07 195.144 192.098 195.019C192.126 194.895 192.205 194.786 192.318 194.715C192.373 194.681 192.435 194.657 192.501 194.646C192.566 194.635 192.633 194.635 192.698 194.649C192.762 194.662 192.824 194.687 192.878 194.723C192.932 194.758 192.978 194.804 193.014 194.856C193.616 195.75 194.305 196.589 195.072 197.364C195.166 197.458 195.215 197.583 195.211 197.712C195.207 197.84 195.148 197.962 195.049 198.051L195.053 198.048ZM201.11 201.966C201.071 202.048 201.007 202.117 200.927 202.166C200.847 202.215 200.753 202.241 200.658 202.242C200.584 202.242 200.51 202.227 200.443 202.196C199.382 201.719 198.364 201.16 197.4 200.526C197.289 200.452 197.214 200.34 197.19 200.215C197.166 200.09 197.195 199.961 197.271 199.856C197.308 199.804 197.356 199.76 197.411 199.725C197.467 199.691 197.529 199.668 197.594 199.656C197.66 199.645 197.727 199.646 197.791 199.659C197.856 199.672 197.918 199.698 197.972 199.733C198.891 200.337 199.862 200.87 200.873 201.326C200.994 201.383 201.087 201.482 201.13 201.603C201.174 201.723 201.166 201.854 201.107 201.969L201.11 201.966ZM188.765 352.642C188.765 352.642 199.934 354.664 209.367 351.972C208.512 341.068 209.188 249.219 204.747 203.693" fill="#00043B"/>
<path d="M124.229 370.367C124.267 371.315 124.543 372.24 125.035 373.068L124.229 370.367Z" fill="#00043B"/>
<path d="M167.657 371.685H167.651L167.593 370.188H167.588C167.559 362.503 166.413 363.51 165.469 353.399C165.371 353.464 165.273 353.522 165.176 353.585L164.912 350.906L164.189 350.969L164.49 354.002C159.308 356.962 154.283 356.002 151.892 355.8L151.466 352.993L150.746 353.088L151.153 355.77C150.968 355.763 150.784 355.799 150.617 355.873C149.252 356.644 150.67 357.033 149.004 359.316C147.337 361.599 131.045 364.475 126.372 365.875C123.742 366.661 123.414 369.08 123.911 371.176H123.941C124.042 371.702 124.21 372.214 124.442 372.702C124.709 373.439 125.209 374.083 125.875 374.548C127.449 375.269 159.401 374.322 160.124 374.493C160.847 374.664 160.884 375.073 160.884 375.073L167.592 374.815C167.716 373.776 167.738 372.728 167.657 371.685ZM125.255 372.725C125.003 372.257 124.814 371.761 124.691 371.249C130.772 371.679 154.398 370.418 166.876 370.37L166.929 371.709C150.541 372.215 131.704 372.842 125.255 372.725Z" fill="#00043B"/>
<path d="M207.277 363.204C205.885 358.637 205.106 357.297 204.775 353.992C204.755 354.011 204.735 354.023 204.716 354.042V352.422H203.99V354.577C201.926 355.759 200.133 353.921 198.59 353.992C196.413 354.092 196.435 355.662 193.573 354.623L192.908 352.674L192.217 352.882L192.687 354.259C192.633 354.235 192.586 354.216 192.529 354.189C192.77 355.736 192.675 356.51 192.285 359.25C191.801 362.642 190.545 364.838 190.427 366.892C190.359 368.07 190.012 371.126 191.016 372.702C190.998 372.761 190.998 372.825 191.016 372.885L191.884 375.437C191.894 375.464 191.92 375.48 191.935 375.502C192.017 375.826 192.198 376.12 192.457 376.347C192.716 376.575 193.041 376.725 193.391 376.781C196.137 377.353 203.193 377.474 205.952 376.647C206.203 376.507 206.415 376.311 206.567 376.077C206.72 375.843 206.811 375.578 206.83 375.305C206.9 375.254 206.947 375.181 206.963 375.1L207.563 372.073C207.565 372.053 207.565 372.033 207.563 372.013C209.204 367.222 207.902 365.013 207.277 363.204ZM192.492 374.978L191.853 373.102C194.404 373.287 204.145 373.02 206.661 372.912L206.314 374.663C204.089 374.728 197.332 375.058 192.487 374.978H192.492Z" fill="#00043B"/>
<path d="M141.485 16.7156C141.992 14.3749 144.572 12.2865 147.656 11.7939C153.708 10.8264 166.085 12.3261 170.491 13.4237C174.898 14.5212 184.54 18.0323 186.824 26.5908C189.107 35.1494 185.724 44.6599 177.771 52.634C175.403 54.6086 174.726 53.658 173.965 50.5138C173.203 47.3695 172.527 46.5631 174.303 45.32C176.08 44.0768 177.774 40.1997 175.065 39.6866C172.356 39.1735 171.258 40.7941 171.258 40.7941C170.579 42.3941 169.058 42.9058 168.889 41.2965C168.72 39.6873 168.286 37.4286 170.49 32.7783C172.694 28.128 171.258 24.0317 168.636 23.2268C166.013 22.4218 158.909 23.0805 152.48 25.494C148.675 26.2283 140.583 20.879 141.485 16.7156Z" fill="#00043B"/>
<path d="M151.971 23.5109C151.378 25.349 150.971 27.2354 150.755 29.145C150.567 31.6949 150.61 34.3939 150.331 36.3968C150.175 37.5071 146.984 45.4585 147.248 46.1441C147.494 46.7801 150.428 46.7886 151.065 47.1137C151.396 47.7717 151.14 57.5811 151.22 58.4921C151.509 61.6441 153.138 63.071 159.862 62.1297C166.088 61.2583 170.808 55.9104 170.808 55.9104" stroke="#00043B" stroke-miterlimit="10"/>
<path d="M177.442 62.3848C176.763 60.8363 176.124 58.1882 176.013 53.6622" stroke="#00043B" stroke-miterlimit="10"/>
<path d="M157.259 66.9008C157.324 66.7093 157.38 66.5184 157.426 66.3227C157.442 66.2732 157.454 66.2223 157.46 66.1707C157.486 66.0777 157.506 65.9833 157.521 65.888C157.556 65.7368 157.581 65.5813 157.601 65.4301C157.748 64.411 157.778 63.3802 157.692 62.3551C157.692 62.3282 157.687 62.3014 157.687 62.2794" stroke="#00043B" stroke-width="0.96" stroke-miterlimit="10"/>
<path d="M233.422 186.582C233.422 186.582 235.077 189.273 234.994 191.014C234.911 192.755 233.836 199.166 233.753 200.196C233.67 201.225 234.167 204.944 233.753 206.768C233.34 208.592 232.932 210.646 234.997 209.697C237.062 208.748 236.981 205.66 236.981 204.397C236.981 203.133 236.939 199.608 238.263 199.608C239.587 199.608 240.455 204.951 241.904 206.969C242.783 208.196 248.234 214.766 249.64 215.321C251.046 215.875 252.784 215.162 251.543 213.025C250.302 210.888 246.785 207.563 245.792 205.98C244.8 204.398 244.014 201.943 244.593 201.548C245.136 201.177 249.309 207.01 250.633 208.592C251.957 210.175 255.348 214.252 256.508 213.381C257.667 212.511 257.169 210.967 253.777 206.851C250.384 202.735 247.654 199.253 248.481 198.619C249.308 197.985 254.521 204.081 255.346 205.11C256.171 206.139 259.146 209.48 259.979 208.83C261.077 207.974 259.979 205.189 257.084 202.257C254.189 199.326 252.119 196.321 252.946 196.083C253.773 195.846 258.262 197.72 259.585 198.379C261.014 199.092 263.289 197.112 259.235 195.292C255.181 193.473 248.397 190.939 243.514 181.045C238.883 183.415 233.422 186.582 233.422 186.582Z" stroke="#00043B" stroke-miterlimit="10"/>
<path d="M78.7395 95.8295C78.7395 95.8295 74.1476 94.6422 71.4175 91.4364C68.6874 88.2307 65.3168 81.2496 58.3863 78.1392C56.2992 77.2456 53.9483 77.0485 51.7251 77.5809C50.3996 78.277 47.754 79.6954 46.4715 80.5138C45.1061 81.3845 44.7365 83.4821 47.3398 83.3634C49.9432 83.2447 52.9223 80.87 54.6626 80.9881C56.403 81.1061 59.1308 83.68 59.2546 86.4299" stroke="#00043B" stroke-miterlimit="10" stroke-linecap="round"/>
<path d="M69.5149 107.43C69.5149 107.43 64.1098 102.408 61.4068 101.763H61.4015C61.3465 101.748 61.2959 101.738 61.2454 101.729C58.2389 101.425 55.2738 100.831 52.3972 99.9575" stroke="#00043B" stroke-miterlimit="10"/>
<path d="M66.64 99.6317C66.64 99.6317 65.1915 102.105 61.3819 101.761" stroke="#00043B" stroke-miterlimit="10" stroke-linecap="round"/>
<path d="M234.002 150.328C232.18 146.052 226.226 135.921 222.254 118.03C211.095 75.3541 188.551 66.6627 181.434 65.2711C181.132 65.2111 180.864 65.1658 180.62 65.1298C181.994 63.8421 181.762 62.6958 181.72 62.5544C181.658 62.346 180.169 59.1112 175.514 63.4732C170.86 67.8352 163.197 66.8281 160.435 66.2125C157.673 65.5969 155.672 65.6203 155.052 66.6797C154.928 66.8967 154.862 67.1381 154.858 67.3838C154.854 67.6296 154.913 67.8727 155.029 68.0931C154.872 68.1066 154.714 68.115 154.56 68.132C128.604 70.9299 112.754 118.412 113.242 118.565L79.7746 95.7116C79.7746 95.7116 78.4092 93.8514 76.6296 95.7116C68.0228 104.735 69.1854 108.217 69.1854 108.217C69.1854 108.217 73.6498 112.646 84.0791 122.306C94.5085 131.966 106.749 143.203 115.019 141.937C123.288 140.67 133.39 125.787 137.527 117.399C136.697 138.61 140.668 177.872 143.155 180.876C163.177 190.059 197.928 181.83 200.576 178.98C203.223 175.652 200.409 119.297 200.409 119.297C200.409 119.297 209.343 142.407 211.824 148.428C214.305 154.45 225.727 180.877 231.022 186.578C240.786 186.42 244.592 179.77 244.592 179.77C244.592 179.77 235.82 154.604 234.002 150.328Z" fill="#66B6FF"/>
<path d="M137.568 107.429V118.035L130.121 129.116C130.121 129.116 135.417 117.164 137.568 107.429Z" fill="#86C5FF" stroke="#82C3FF" stroke-width="0.998" stroke-linejoin="round"/>
<path d="M198.878 108.576L200.409 120.251C200.409 120.251 204.505 129.314 206.408 134.301C205.743 124.209 198.878 108.576 198.878 108.576Z" fill="#72BBFF" stroke="#66B6FF" stroke-width="0.998" stroke-linejoin="round"/>
<path d="M77.5613 95.0013C73.2559 98.014 69.8042 101.969 67.5084 106.521C68.3766 107.652 71.2312 110.38 71.2312 110.38C71.7849 104.804 73.9759 99.4815 77.5613 95.0013Z" fill="#86C5FF"/>
<path d="M229.119 184.127C229.119 184.127 231.601 188.322 232.595 188.679C233.588 189.036 243.684 183.296 244.84 179.972C244.886 179.468 244.786 178.962 244.551 178.507C240.24 181.972 234.796 183.955 229.119 184.127Z" fill="#86C5FF" stroke="#66B6FF" stroke-width="0.998" stroke-linejoin="round"/>
<path d="M56.8345 77.453L64.5096 54.2679C64.6608 53.8209 64.6183 53.3361 64.3914 52.9182C64.1645 52.5003 63.7713 52.1827 63.2966 52.0339L26.3846 40.8477C26.1498 40.7776 25.9024 40.752 25.6569 40.7726C25.4114 40.7932 25.1728 40.8594 24.955 40.9675C24.7372 41.0756 24.5446 41.2233 24.3885 41.402C24.2324 41.5807 24.116 41.7868 24.046 42.0082L6.5066 94.98C6.35563 95.427 6.39818 95.9117 6.62509 96.3296C6.852 96.7475 7.2451 97.0651 7.71965 97.214L44.6346 108.399C44.8695 108.469 45.1168 108.495 45.3622 108.474C45.6077 108.454 45.8462 108.387 46.064 108.279C46.2817 108.171 46.4743 108.023 46.6304 107.845C46.7865 107.666 46.9031 107.46 46.9732 107.239L55.62 81.1224" stroke="#00043B" stroke-miterlimit="10"/>
<path d="M57.8567 83.0044L52.3045 99.7801L46.7733 116.479C46.691 116.74 46.5539 116.982 46.3701 117.193C46.1864 117.403 45.9597 117.577 45.7032 117.705C45.4468 117.832 45.1658 117.91 44.8768 117.934C44.5877 117.959 44.2964 117.929 44.0198 117.846L2.53477 105.275C1.97516 105.1 1.51161 104.725 1.24416 104.232C0.976705 103.739 0.926801 103.168 1.10521 102.641L22.7696 37.2229C22.8517 36.962 22.9886 36.7191 23.1723 36.5085C23.356 36.2979 23.5827 36.1238 23.8392 35.9964C24.0957 35.869 24.3768 35.7909 24.666 35.7667C24.9551 35.7425 25.2465 35.7726 25.5231 35.8554L67.0082 48.4274C67.5682 48.6022 68.0323 48.9766 68.2999 49.4696C68.5674 49.9626 68.6169 50.5345 68.4377 51.0614L59.358 78.4891" stroke="#00043B" stroke-miterlimit="10"/>
<path d="M49.6249 66.821L23.3527 58.813C23.0822 58.7266 22.8584 58.5445 22.7293 58.3056C22.6002 58.0667 22.5759 57.7899 22.6617 57.5345L26.1319 47.1095C26.1727 46.9835 26.2397 46.8664 26.3291 46.7649C26.4185 46.6634 26.5286 46.5796 26.6528 46.5182C26.7771 46.4568 26.9131 46.4191 27.053 46.4073C27.1929 46.3955 27.3339 46.4098 27.4679 46.4494L53.7431 54.4574C54.0135 54.5439 54.2371 54.7261 54.366 54.965C54.495 55.2039 54.5192 55.4805 54.4333 55.7359L50.9632 66.1602C50.9224 66.2864 50.8553 66.4037 50.7657 66.5054C50.6761 66.6071 50.5659 66.6911 50.4414 66.7526C50.3169 66.8141 50.1806 66.8518 50.0405 66.8635C49.9003 66.8752 49.759 66.8608 49.6249 66.821V66.821Z" stroke="#00043B" stroke-miterlimit="10"/>
<path d="M45.3521 81.7521L22.1171 74.6692C21.8463 74.5835 21.6221 74.402 21.4923 74.1635C21.3624 73.925 21.3373 73.6484 21.4223 73.3928L24.8924 62.9678C24.9332 62.8415 25.0004 62.724 25.0899 62.6221C25.1795 62.5202 25.2897 62.436 25.4142 62.3742C25.5387 62.3124 25.675 62.2744 25.8153 62.2622C25.9555 62.2501 26.097 62.2641 26.2315 62.3035L52.5059 70.3157C52.7762 70.4016 52.9999 70.5834 53.1288 70.822C53.2577 71.0607 53.2816 71.3371 53.1954 71.5921L51.1767 77.6537" stroke="#00043B" stroke-miterlimit="10"/>
<path d="M17.5402 80.8877C18.1043 80.8877 18.5617 80.4505 18.5617 79.911C18.5617 79.3716 18.1043 78.9343 17.5402 78.9343C16.9761 78.9343 16.5188 79.3716 16.5188 79.911C16.5188 80.4505 16.9761 80.8877 17.5402 80.8877Z" stroke="#00043B" stroke-miterlimit="10" stroke-linecap="round"/>
<path d="M21.6116 82.2736C22.1757 82.2736 22.633 81.8363 22.633 81.2969C22.633 80.7575 22.1757 80.3202 21.6116 80.3202C21.0475 80.3202 20.5902 80.7575 20.5902 81.2969C20.5902 81.8363 21.0475 82.2736 21.6116 82.2736Z" stroke="#00043B" stroke-miterlimit="10" stroke-linecap="round"/>
<path d="M25.6996 83.6666C26.2637 83.6666 26.721 83.2382 26.721 82.7097C26.721 82.1812 26.2637 81.7528 25.6996 81.7528C25.1355 81.7528 24.6782 82.1812 24.6782 82.7097C24.6782 83.2382 25.1355 83.6666 25.6996 83.6666Z" stroke="#00043B" stroke-width="0.99" stroke-miterlimit="10" stroke-linecap="round"/>
<path d="M24.6578 109.351C25.789 109.351 26.706 108.474 26.706 107.392C26.706 106.31 25.789 105.433 24.6578 105.433C23.5267 105.433 22.6097 106.31 22.6097 107.392C22.6097 108.474 23.5267 109.351 24.6578 109.351Z" stroke="#00043B" stroke-miterlimit="10"/>
</svg>
